<svg width="64" height="64" viewBox="0 0 64 64" fill="none" xmlns="http://www.w3.org/2000/svg">
<path fill-rule="evenodd" clip-rule="evenodd" d="M18.2179 48.2769C18.2168 48.276 18.2157 48.2751 18.2148 48.2741C18.2138 48.2731 18.2127 48.2722 18.2116 48.2714C17.2689 47.5698 16.0587 47.4832 15.0609 47.9413C14.4639 48.2154 13.6942 48.2366 13.2915 47.7176C12.3136 46.4573 11.5323 45.0795 10.952 43.6317C10.7185 43.0491 11.0792 42.4199 11.5762 42.0365C12.4378 41.3717 12.9246 40.2736 12.7545 39.118C12.5877 37.9879 11.8347 37.0915 10.8505 36.6901C10.2686 36.4529 9.75209 35.942 9.82283 35.3177C9.99964 33.757 10.3949 32.2114 11.0132 30.7253C11.2504 30.1555 11.9313 29.9549 12.5454 30.0175C13.5977 30.1248 14.6775 29.6909 15.3546 28.7781C16.0304 27.864 16.1334 26.6999 15.7258 25.7198C15.4891 25.1508 15.4854 24.4423 15.9617 24.0513C17.2044 23.0311 18.5687 22.2071 20.0073 21.5876C20.5852 21.3388 21.2243 21.6861 21.6186 22.1764C22.2865 23.0067 23.3611 23.4715 24.4892 23.3044C25.6428 23.1338 26.5515 22.3489 26.9391 21.3306C27.1623 20.7442 27.6611 20.2184 28.286 20.2749C29.8365 20.4153 31.3787 20.7699 32.8674 21.3475C33.4789 21.5847 33.6795 22.3265 33.5888 22.976C33.4363 24.0671 33.8685 25.2066 34.8125 25.9102C35.7841 26.6328 37.0371 26.7019 38.0517 26.1958C38.6387 25.903 39.4057 25.8586 39.8245 26.3636C40.8391 27.5872 41.6627 28.9291 42.2888 30.3472C42.5645 30.9719 42.1397 31.6625 41.5786 32.0517C40.6379 32.7043 40.0934 33.8536 40.2713 35.0648C40.4524 36.2983 41.3338 37.2555 42.4518 37.5933C43.1054 37.7907 43.7227 38.3163 43.6534 38.9956C43.4964 40.5349 43.1295 42.064 42.5458 43.5371C42.29 44.1828 41.479 44.3573 40.7991 44.2161C39.6511 43.9777 38.4178 44.4028 37.6712 45.4077C36.9257 46.4141 36.8765 47.7231 37.4375 48.7569C37.7681 49.366 37.834 50.1907 37.2913 50.6217C36.0512 51.6067 34.6959 52.3995 33.2684 52.9933C32.638 53.2556 31.9573 52.8157 31.5819 52.2453C30.9384 51.2679 29.7704 50.6968 28.5365 50.8785C27.327 51.0569 26.3857 51.9112 26.0337 53.0033C25.8242 53.6532 25.2852 54.2585 24.6077 54.1737C23.0712 53.9812 21.5506 53.5759 20.0897 52.9529C19.4882 52.6964 19.311 51.952 19.4224 51.3077C19.6161 50.1879 19.19 49.003 18.2179 48.2769ZM31.0126 37.3176C31.0126 39.6264 29.141 41.498 26.8323 41.498C24.5235 41.498 22.6519 39.6264 22.6519 37.3176C22.6519 35.0089 24.5235 33.1373 26.8323 33.1373C29.141 33.1373 31.0126 35.0089 31.0126 37.3176Z" fill="#00F3F3"/>
<path fill-rule="evenodd" clip-rule="evenodd" d="M41.3659 23.9489L41.3643 23.9475L41.3627 23.9461C41.0589 23.7201 40.7004 23.62 40.3495 23.6368C40.3334 23.6376 40.3172 23.6384 40.3008 23.6392C39.6537 23.6705 38.8725 23.7084 38.5166 23.1756C38.2885 22.8342 38.0867 22.4788 37.9114 22.1126C37.6427 21.5512 38.0391 20.9137 38.3689 20.3833L38.3774 20.3697C38.5672 20.0643 38.6541 19.6925 38.5975 19.3081C38.5428 18.937 38.3632 18.6156 38.1079 18.38L38.0949 18.368C37.6356 17.9442 37.0835 17.4349 37.1943 16.8224C37.2706 16.4005 37.3789 15.9824 37.5197 15.5714C37.7185 14.9911 38.432 14.8103 39.0281 14.6593L39.0392 14.6565C39.3779 14.5707 39.6902 14.3718 39.915 14.0687C40.1401 13.7643 40.2398 13.4051 40.223 13.0537C40.1937 12.4382 40.1587 11.6978 40.6591 11.3381C41.011 11.0852 41.379 10.8612 41.7595 10.6666C42.3161 10.3819 42.9659 10.7674 43.5051 11.0871L43.5152 11.0932C43.8142 11.2705 44.1732 11.35 44.5436 11.2951C44.9276 11.2384 45.258 11.0473 45.4952 10.7766L45.4993 10.7719C45.912 10.3009 46.4102 9.73231 47.028 9.82951C47.4288 9.89259 47.8272 9.98443 48.2198 10.1056C48.8339 10.2952 49.0211 11.0584 49.1757 11.6882C49.1789 11.7012 49.182 11.7142 49.1852 11.727C49.2696 12.0706 49.4693 12.3881 49.7745 12.6155C50.0933 12.8526 50.4718 12.9509 50.8386 12.9211C50.8529 12.9199 50.8673 12.9187 50.8818 12.9176C51.5276 12.8648 52.3083 12.8011 52.6824 13.3225C52.9049 13.6326 53.1051 13.9553 53.2826 14.2881C53.5925 14.8689 53.1598 15.5576 52.8035 16.1249C52.7902 16.146 52.777 16.167 52.764 16.1878C52.572 16.4943 52.4838 16.8681 52.5405 17.2543C52.5989 17.652 52.801 17.993 53.0862 18.2325C53.1058 18.249 53.1257 18.2657 53.1458 18.2825C53.6587 18.7122 54.2806 19.2331 54.1658 19.8801C54.1033 20.2323 54.0187 20.5821 53.9116 20.9275C53.7151 21.561 52.9111 21.7326 52.2478 21.8742C52.2166 21.8808 52.1858 21.8874 52.1553 21.894C51.7952 21.9716 51.4605 22.1755 51.223 22.4951C50.9849 22.8165 50.887 23.1988 50.9183 23.5688C50.9205 23.5952 50.9228 23.6219 50.9251 23.6488C50.9834 24.3257 51.0544 25.1512 50.5024 25.5246C50.2029 25.7272 49.8927 25.9094 49.5737 26.071C48.9859 26.3687 48.3073 25.9197 47.7485 25.5499C47.7281 25.5364 47.7079 25.5231 47.6879 25.5098C47.3769 25.3046 46.9924 25.2086 46.5944 25.2672C46.2085 25.3241 45.8764 25.5169 45.6389 25.79C45.6244 25.8067 45.6097 25.8236 45.595 25.8406C45.155 26.3474 44.6194 26.9645 43.9718 26.8336C43.6019 26.7587 43.2351 26.659 42.8741 26.5342C42.2663 26.324 42.1051 25.5545 41.9722 24.9204L41.9655 24.8883C41.8894 24.5255 41.6861 24.1881 41.3659 23.9489ZM47.8055 18.3666C47.8055 19.4838 46.8999 20.3894 45.7827 20.3894C44.6656 20.3894 43.76 19.4838 43.76 18.3666C43.76 17.2495 44.6656 16.3439 45.7827 16.3439C46.8999 16.3439 47.8055 17.2495 47.8055 18.3666Z" fill="#00F3F3"/>
</svg>
