<svg width="64" height="64" viewBox="0 0 64 64" fill="none" xmlns="http://www.w3.org/2000/svg">
<path fill-rule="evenodd" clip-rule="evenodd" d="M46.9499 36.025C46.9499 46.5046 38.4545 55 27.975 55C17.4954 55 9 46.5046 9 36.025C9 25.5454 17.4954 17.05 27.975 17.05C38.4545 17.05 46.9499 25.5454 46.9499 36.025ZM28.205 26.365C28.205 25.6664 27.6386 25.1 26.94 25.1C26.2413 25.1 25.675 25.6664 25.675 26.365V37.3283C25.675 37.8443 25.9883 38.3086 26.4668 38.5015C26.9453 38.6945 27.4931 38.5775 27.851 38.2059L37.971 27.6997C38.4557 27.1965 38.4407 26.3957 37.9375 25.911C37.4343 25.4264 36.6335 25.4414 36.1489 25.9445L28.205 34.1916V26.365Z" fill="#00D1FF"/>
<circle cx="49.5367" cy="14.4625" r="5.4625" fill="#00D1FF"/>
</svg>
