<svg width="34" height="24" viewBox="0 0 34 24" fill="none" xmlns="http://www.w3.org/2000/svg">
<path fill-rule="evenodd" clip-rule="evenodd" d="M6.65121 0.045514C2.78387 0.350594 0.930349 1.52277 0.305994 4.05836C0.0151601 5.23982 0 5.60386 0 11.4234C0 17.3841 0.0166894 17.7333 0.366834 19.1021C1.15835 22.1967 3.15901 23.5913 7.31406 23.9451C7.91142 23.9959 11.1262 24.0106 17.72 23.9927C27.8539 23.9651 27.5994 23.9728 29.0568 23.6514C31.5934 23.0921 33.0281 21.6812 33.6104 19.1734C33.9443 17.7353 33.963 17.3974 33.9928 12.258C34.029 6.02399 33.9424 4.70031 33.4075 3.31059C32.686 1.43577 31.2857 0.579889 28.1924 0.123103C27.5472 0.0278197 26.2772 0.0134638 17.4208 0.0015784C11.8987 -0.00590004 7.05235 0.013931 6.65121 0.045514ZM14.4245 7.05682C14.7289 7.14162 21.6372 10.7283 21.9589 10.9684C22.5021 11.3739 22.5367 12.1676 22.0316 12.6365C21.9459 12.7161 20.23 13.6454 18.2187 14.7016C15.0977 16.3405 14.5129 16.6255 14.2292 16.6462C13.78 16.679 13.4196 16.473 13.2152 16.0663L13.0656 15.7686V11.901C13.0656 9.19244 13.0884 7.9571 13.1416 7.77869C13.2348 7.46639 13.4982 7.20298 13.8393 7.08085C14.1556 6.96761 14.1112 6.96941 14.4245 7.05682Z" fill="#FF2525"/>
</svg>
