<svg width="24" height="24" viewBox="0 0 24 24" fill="none" xmlns="http://www.w3.org/2000/svg">
<path d="M14 20C14 19.4477 14.4442 19 14.9922 19H21.0325C21.5805 19 22 19.4477 22 20C22 20.5523 22 21 22 21H14V20Z" fill="#FFFFFF"/>
<rect x="12.142" y="3.41431" width="10" height="8" rx="2" transform="rotate(45 12.142 3.41431)" fill="#FFFFFF"/>
<path d="M18.0346 11.6639C18.6855 11.013 19.7408 11.013 20.3916 11.6639C20.5218 11.794 20.5218 12.0051 20.3916 12.1353L15.2062 17.3207C15.076 17.4509 14.865 17.4509 14.7348 17.3207C14.0839 16.6698 14.0839 15.6146 14.7348 14.9637L18.0346 11.6639Z" fill="#FFFFFF"/>
<path d="M10.4922 2.2357C10.6224 2.10553 10.8334 2.10553 10.9636 2.2357C11.6145 2.88658 11.6145 3.94185 10.9636 4.59272L7.66378 7.89256C7.0129 8.54343 5.95763 8.54343 5.30675 7.89256C5.17658 7.76238 5.17658 7.55133 5.30675 7.42115L10.4922 2.2357Z" fill="#FFFFFF"/>
<path d="M10.0254 11.0795C10.4225 10.7436 11.0107 10.7681 11.3785 11.1358L11.4914 11.2488C11.8592 11.6165 11.8837 12.2048 11.5477 12.6018L5.65578 19.565C4.96034 20.3869 3.71098 20.4389 2.94968 19.6776C2.18839 18.9163 2.24036 17.6669 3.06224 16.9715L10.0254 11.0795Z" fill="#FFFFFF"/>
</svg>
