<svg width="24" height="24" viewBox="0 0 24 24" fill="none" xmlns="http://www.w3.org/2000/svg">
<path d="M11 4C9.21997 4 7.47991 4.52784 5.99987 5.51677C4.51983 6.50571 3.36627 7.91131 2.68508 9.55585C2.0039 11.2004 1.82567 13.01 2.17293 14.7558C2.5202 16.5016 3.37737 18.1053 4.63604 19.364C5.89471 20.6226 7.49836 21.4798 9.24419 21.8271C10.99 22.1743 12.7996 21.9961 14.4442 21.3149C16.0887 20.6337 17.4943 19.4802 18.4832 18.0001C19.4722 16.5201 20 14.78 20 13H11.5C11.2239 13 11 12.7761 11 12.5V4Z" fill="#2589FF"/>
<path d="M23 11C23 9.68678 22.7413 8.38642 22.2388 7.17317C21.7362 5.95991 20.9997 4.85752 20.0711 3.92893C19.1425 3.00035 18.0401 2.26375 16.8268 1.7612C15.6136 1.25866 14.3132 1 13 1V10.5C13 10.7761 13.2239 11 13.5 11H23Z" fill="#2589FF"/>
</svg>
