<svg width="24" height="24" viewBox="0 0 24 24" fill="none" xmlns="http://www.w3.org/2000/svg">
<path d="M23 5H6C4.34315 5 3 6.34315 3 8V19" stroke="#2589FF" stroke-width="1.8"/>
<rect width="5" height="3" rx="0.6" transform="matrix(1 0 0 -1 6 11)" fill="#2589FF"/>
<rect width="5" height="3" rx="0.6" transform="matrix(1 0 0 -1 6 15)" fill="#2589FF"/>
<rect width="5" height="3" rx="0.6" transform="matrix(1 0 0 -1 6 19)" fill="#2589FF"/>
<rect width="5" height="3" rx="0.6" transform="matrix(1 0 0 -1 12 11)" fill="#2589FF"/>
<rect width="5" height="3" rx="0.6" transform="matrix(1 0 0 -1 12 15)" fill="#2589FF"/>
<rect width="5" height="3" rx="0.6" transform="matrix(1 0 0 -1 18 11)" fill="#2589FF"/>
</svg>
