<svg width="24" height="24" viewBox="0 0 24 24" fill="none" xmlns="http://www.w3.org/2000/svg">
<path fill-rule="evenodd" clip-rule="evenodd" d="M12 6.01926V12H12.0003L12.0003 8.00012C12.5256 8.00012 13.0457 8.10359 13.531 8.30461C14.0163 8.50562 14.4573 8.80026 14.8287 9.1717C15.2001 9.54313 15.4948 9.98409 15.6958 10.4694C15.8968 10.9547 16.0003 11.4748 16.0003 12H17.9807C17.9281 11.3176 17.7679 10.6468 17.5052 10.0126C17.1786 9.22394 16.6998 8.50739 16.0962 7.90381C15.4926 7.30023 14.7761 6.82144 13.9874 6.49478C13.3532 6.23208 12.6824 6.07191 12 6.01926Z" fill="#2589FF"/>
<path fill-rule="evenodd" clip-rule="evenodd" d="M21.2388 8.17315C21.7413 9.38641 22 10.6868 22 12H19.9999C19.9999 10.9495 19.793 9.90924 19.391 8.93868C18.9889 7.96808 18.3997 7.08617 17.6568 6.3433C16.9139 5.60043 16.032 5.01115 15.0614 4.60912C14.0908 4.20709 13.0506 4.00016 12 4.00015V1.99998C13.3132 1.99998 14.6136 2.25864 15.8268 2.76119C17.0401 3.26374 18.1425 4.00033 19.0711 4.92892C19.9997 5.8575 20.7362 6.95989 21.2388 8.17315Z" fill="#2589FF"/>
<path d="M5.70586 4.18596L5.70585 4.18595C5.503 3.80255 5.01312 3.60824 4.60447 3.86679L4.60443 3.86681C4.01011 4.24296 3.38591 4.82847 2.88292 5.48488C2.38192 6.13869 1.983 6.8866 1.86878 7.5923L1.86878 7.59231C1.31241 11.0301 2.73647 15.5341 5.6012 18.3988C8.46589 21.2635 12.9699 22.6876 16.4077 22.1312C17.1134 22.017 17.8613 21.6181 18.5151 21.1171C19.1715 20.6141 19.757 19.9899 20.1332 19.3956L20.1332 19.3955C20.3918 18.9869 20.1974 18.497 19.8141 18.2941L19.814 18.2941L15.259 15.8844L15.1421 16.1054L15.259 15.8844C14.8745 15.681 14.3992 15.801 14.1504 16.1566L12.9577 17.8615L12.9577 17.8615C12.8123 18.0694 12.614 18.1856 12.4136 18.179L12.4136 18.179C11.6976 18.1555 10.0915 17.8524 8.11957 15.8805C6.14757 13.9085 5.84453 12.3024 5.82098 11.5864L5.82098 11.5864C5.81437 11.386 5.93057 11.1877 6.13849 11.0423L6.1385 11.0423L7.84336 9.84959C7.84337 9.84958 7.84338 9.84958 7.84338 9.84958C8.199 9.60083 8.31895 9.12548 8.11557 8.74101L8.11556 8.741L5.70586 4.18596Z" fill="#2589FF" stroke="#2589FF" stroke-width="0.5"/>
</svg>
