<svg width="48" height="48" viewBox="0 0 48 48" fill="none" xmlns="http://www.w3.org/2000/svg">
<rect x="2" y="30" width="12" height="12" rx="1.6" fill="#2589FF"/>
<rect x="18" y="30" width="12" height="12" rx="1.6" fill="#2589FF"/>
<rect x="34" y="30" width="12" height="12" rx="1.6" fill="#2589FF"/>
<rect x="18" y="2" width="12" height="12" rx="2" fill="#2589FF"/>
<path d="M24 12L24 34" stroke="#2589FF" stroke-width="2.8"/>
<path d="M24 12V18C24 20.651 21.851 22.8 19.2 22.8H12.8C10.149 22.8 8 24.949 8 27.6L8 34" stroke="#2589FF" stroke-width="2.8"/>
<path d="M24 12V18C24 20.651 26.149 22.8 28.8 22.8H35.2C37.851 22.8 40 24.949 40 27.6V34" stroke="#2589FF" stroke-width="2.8"/>
</svg>
