<svg width="64" height="64" viewBox="0 0 64 64" fill="none" xmlns="http://www.w3.org/2000/svg">
<path fill-rule="evenodd" clip-rule="evenodd" d="M46.6985 33.4922C48.3147 26.254 44.2799 19.0691 37.5179 16.5351L37.87 14.9583C37.9774 14.4303 37.873 13.8811 37.5793 13.4289C37.2856 12.9767 36.826 12.6574 36.2993 12.5398C35.7727 12.4222 35.2209 12.5157 34.7628 12.8C34.3046 13.0844 33.9765 13.5369 33.8491 14.0605L33.4969 15.6378C26.3009 15.0569 19.5958 19.8428 17.9799 27.0797L17.6415 28.5951C16.5531 33.4688 14.4185 38.0479 11.3852 42.0165L9.89047 41.6827C9.6918 41.6383 9.48634 41.6333 9.28581 41.6682C9.08528 41.7031 8.8936 41.777 8.72176 41.8859C8.54992 41.9948 8.40125 42.1364 8.28427 42.3027C8.16729 42.469 8.08429 42.6567 8.03999 42.8551L7.43912 45.5461C7.39482 45.7445 7.3901 45.9497 7.42523 46.15C7.46036 46.3502 7.53466 46.5416 7.64387 46.7133C7.75309 46.8849 7.89509 47.0334 8.06175 47.1502C8.2284 47.2671 8.41644 47.35 8.61515 47.3943L22.2324 50.4348C22.0814 51.0745 22.059 51.7378 22.1665 52.3863C22.2741 53.0351 22.5096 53.6561 22.8592 54.2134C23.2089 54.7707 23.6658 55.2533 24.2035 55.633C24.7412 56.0128 25.3489 56.2822 25.9915 56.4257C26.6341 56.5692 27.2988 56.5839 27.9469 56.4689C28.5951 56.3539 29.2139 56.1116 29.7674 55.7559C30.3209 55.4003 30.7982 54.9384 31.1715 54.397C31.5446 53.8558 31.8065 53.246 31.9419 52.6029L46.5325 55.8607C46.7312 55.9052 46.9366 55.9101 47.1372 55.8753C47.3377 55.8404 47.5294 55.7664 47.7012 55.6575C47.8731 55.5487 48.0217 55.407 48.1387 55.2408C48.2557 55.0744 48.3387 54.8868 48.383 54.6884L48.9839 51.9973C49.0282 51.799 49.0329 51.5938 48.9978 51.3935C48.9626 51.1932 48.8883 51.0018 48.7791 50.8302C48.6699 50.6586 48.5279 50.5101 48.3612 50.3932C48.1946 50.2764 48.0065 50.1935 47.8078 50.1492L46.3132 49.8155C45.2561 44.9336 45.2721 39.8814 46.3602 35.0076L46.6985 33.4922ZM25.9427 29.0542C27.7115 28.8805 29.0047 27.3058 28.831 25.5369C28.6574 23.768 27.0826 22.4749 25.3137 22.6485C23.5448 22.8222 22.2517 24.397 22.4253 26.1658C22.599 27.9347 24.1738 29.2279 25.9427 29.0542Z" fill="#5E77FF"/>
<path d="M45.0078 14.8999L50.214 10" stroke="#5E77FF" stroke-width="3.06244" stroke-linecap="round"/>
<path d="M49.9062 19.4934L52.9687 18.5747" stroke="#5E77FF" stroke-width="3.06244" stroke-linecap="round"/>
</svg>
