<svg width="64" height="64" viewBox="0 0 64 64" fill="none" xmlns="http://www.w3.org/2000/svg">
<path fill-rule="evenodd" clip-rule="evenodd" d="M40.672 8.13914C41.2351 8.68067 41.2525 9.57612 40.7109 10.1392L36.9823 14.0159C36.4407 14.579 35.5453 14.5964 34.9822 14.0549C34.4192 13.5133 34.4018 12.6179 34.9433 12.0548L38.672 8.17808C39.2135 7.61503 40.109 7.5976 40.672 8.13914ZM48.6175 14.2767C49.0001 14.9578 48.7581 15.8201 48.077 16.2027L39.8717 20.8121C39.1906 21.1947 38.3283 20.9528 37.9457 20.2717C37.5631 19.5906 37.805 18.7283 38.4861 18.3457L46.6915 13.7363C47.3726 13.3537 48.2349 13.5956 48.6175 14.2767ZM46.9824 27.2325C47.7424 27.0517 48.2119 26.289 48.0311 25.5291C47.8503 24.7691 47.0876 24.2995 46.3276 24.4803L42.2405 25.4526C41.4805 25.6334 41.011 26.3961 41.1918 27.1561C41.3726 27.9161 42.1352 28.3856 42.8952 28.2048L46.9824 27.2325Z" fill="#49DEA8"/>
<path d="M14.5858 13.0809L16.0168 11.6499C16.928 10.7387 18.4054 10.7387 19.3166 11.6499L25.3501 17.6834C26.2613 18.5946 26.2613 20.072 25.3501 20.9832L21.1678 25.1655C20.4704 25.8629 20.2975 26.9283 20.7386 27.8105C23.2883 32.91 27.4233 37.045 32.5229 39.5948C33.405 40.0358 34.4704 39.8629 35.1678 39.1655L39.3501 34.9833C40.2613 34.072 41.7387 34.072 42.6499 34.9832L48.6834 41.0168C49.5946 41.928 49.5946 43.4054 48.6834 44.3166L47.2525 45.7475C42.326 50.674 34.5266 51.2283 28.953 47.048L26.1333 44.9333C22.0651 41.8822 18.4512 38.2682 15.4 34.2L13.2853 31.3804C9.10502 25.8067 9.6593 18.0074 14.5858 13.0809Z" fill="#49DEA8"/>
</svg>
