<svg width="64" height="64" viewBox="0 0 64 64" fill="none" xmlns="http://www.w3.org/2000/svg">
<path fill-rule="evenodd" clip-rule="evenodd" d="M9 20.7385C9 19.2518 10.2052 18.0466 11.6919 18.0466H42.9981C44.4848 18.0466 45.69 19.2518 45.69 20.7385V52.0447C45.69 53.5314 44.4848 54.7366 42.9981 54.7366H11.6919C10.2052 54.7366 9 53.5314 9 52.0447V20.7385ZM17.0408 23.6696C17.0408 25.0826 15.8954 26.2281 14.4824 26.2281C13.0694 26.2281 11.9239 25.0826 11.9239 23.6696C11.9239 22.2566 13.0694 21.1112 14.4824 21.1112C15.8954 21.1112 17.0408 22.2566 17.0408 23.6696ZM38.0567 27.6216C38.1498 27.6105 38.2441 27.6078 38.3383 27.6138L38.3666 27.6123C39.2169 27.5754 39.9362 28.2347 39.9731 29.085L40.135 32.8089C40.1719 33.6592 39.5126 34.3785 38.6623 34.4154C38.0639 34.4414 37.5305 34.1227 37.254 33.6352L32.2356 41.6646C31.7903 42.3771 30.8563 42.6015 30.1359 42.1693L22.2471 37.436L19.9591 40.8006L16.8524 45.3693C16.3738 46.0731 15.4153 46.2557 14.7114 45.7771C14.0076 45.2985 13.8251 44.34 14.3036 43.6361L17.4103 39.0675L20.517 34.4988C20.9765 33.8231 21.8836 33.6235 22.5843 34.0439L30.424 38.7477L34.5697 32.1146C33.8397 32.2867 33.074 31.9038 32.787 31.1863C32.4709 30.396 32.8553 29.4992 33.6455 29.1831L37.3005 27.7211C37.5491 27.6216 37.8084 27.5915 38.0567 27.6216Z" fill="#73B3FF"/>
<path d="M48.4531 14.6562L54.0011 10.033M50.9189 20.8206L54.0011 19.896" stroke="#73B3FF" stroke-width="3.08219" stroke-linecap="round"/>
<path d="M43.2141 11.574L42.5977 13.4233" stroke="#73B3FF" stroke-width="3.08219" stroke-linecap="round"/>
</svg>
