<svg width="28" height="24" viewBox="0 0 28 24" fill="none" xmlns="http://www.w3.org/2000/svg">
<path d="M1.71817 10.4523L18.3958 3.32842C20.042 2.5864 25.6253 0.211858 25.6253 0.211858C25.6253 0.211858 28.2021 -0.826923 27.9873 1.69589C27.9157 2.73467 27.3434 6.37094 26.7705 10.3035L24.9811 21.9537C24.9811 21.9537 24.8379 23.6605 23.619 23.9573C22.4002 24.254 20.3981 22.9185 20.0404 22.6215C19.7541 22.399 14.672 19.0597 12.8109 17.4272C12.3098 16.9821 11.7373 16.0914 12.8825 15.0526C15.4594 12.6038 18.5373 9.56132 20.3981 7.63203C21.257 6.74152 22.116 4.66375 18.5371 7.18699L8.44472 14.2366C8.44472 14.2366 7.29931 14.9786 5.15213 14.3108C3.00495 13.6431 0.499698 12.7525 0.499698 12.7525C0.499698 12.7525 -1.21821 11.6395 1.71652 10.4525L1.71817 10.4523Z" fill="#28A9EA"/>
</svg>
