<svg width="32" height="18" viewBox="0 0 32 18" fill="none" xmlns="http://www.w3.org/2000/svg">
<path fill-rule="evenodd" clip-rule="evenodd" d="M31.2661 1.21881C31.4883 0.516263 31.2661 0 30.2072 0H26.7065C25.8163 0 25.4061 0.445915 25.1834 0.937649C25.1834 0.937649 23.4031 5.04785 20.8811 7.71756C20.0652 8.49045 19.6943 8.7362 19.2492 8.7362C19.0267 8.7362 18.7045 8.49022 18.7045 7.78767V1.21881C18.7045 0.375801 18.4463 0 17.7044 0H12.2031C11.6468 0 11.3124 0.391072 11.3124 0.762013C11.3124 1.56128 12.5733 1.74548 12.7033 3.9938V8.87666C12.7033 9.94737 12.4992 10.1413 12.0541 10.1413C10.8672 10.1413 7.98038 6.01304 6.26817 1.28892C5.93259 0.37094 5.59606 0 4.70149 0H1.20038C0.200064 0 0 0.445915 0 0.937649C0 1.81606 1.18704 6.17201 5.52627 11.9328C8.41909 15.8671 12.4951 18 16.2039 18C18.4292 18 18.7045 17.5263 18.7045 16.7104V13.7368C18.7045 12.7895 18.9153 12.6004 19.6198 12.6004C20.139 12.6004 21.0293 12.8462 23.1064 14.7432C25.48 16.9913 25.8713 18 27.2065 18H30.7071C31.7074 18 32.2076 17.5263 31.9189 16.5914C31.6033 15.6598 30.4701 14.3079 28.9663 12.7057C28.1503 11.7924 26.9264 10.8089 26.5555 10.3169C26.0363 9.68472 26.1845 9.40357 26.5555 8.84172C26.5555 8.84172 30.8207 3.1508 31.2658 1.21881H31.2661Z" fill="#0077FF"/>
</svg>
