<svg width="24" height="24" viewBox="0 0 24 24" fill="none" xmlns="http://www.w3.org/2000/svg">
<path d="M13 8C14.1046 8 15 8.89543 15 10C15 11.1046 14.1046 12 13 12C11.8954 12 11 11.1046 11 10C11 8.89543 11.8954 8 13 8Z" fill="#FFFFFF"/>
<path fill-rule="evenodd" clip-rule="evenodd" d="M13 4C16.3137 4 19 6.68629 19 10C19 13.3137 16.3137 16 13 16C12.6934 16 12.3922 15.977 12.098 15.9327L11.0951 19.8188C11.7118 19.9377 12.3486 20 13 20C18.5228 20 23 15.5228 23 10C23 4.47715 18.5228 0 13 0C7.47715 -2.38419e-07 3 4.47715 3 10C3 11.1857 3.20636 12.3232 3.58511 13.3785L7.43994 12.2594C7.15628 11.562 7 10.7993 7 10C7 6.68629 9.68629 4 13 4Z" fill="#FFFFFF"/>
<path d="M10.828 13.433C10.8929 13.2697 10.7307 13.1081 10.5676 13.1736L0.930185 17.0421C0.594797 17.1767 0.595754 17.6518 0.931681 17.7851L4.71426 19.2858L6.25614 23.078C6.3919 23.4119 6.86538 23.41 6.99844 23.075L10.828 13.433Z" fill="#FFFFFF"/>
<path fill-rule="evenodd" clip-rule="evenodd" d="M6.70711 17.2929C6.31658 16.9024 5.68342 16.9024 5.29289 17.2929L1.29289 21.2929C0.902369 21.6834 0.902369 22.3166 1.29289 22.7071C1.68342 23.0976 2.31658 23.0976 2.70711 22.7071L6.70711 18.7071C7.09763 18.3166 7.09763 17.6834 6.70711 17.2929Z" fill="#FFFFFF"/>
</svg>
