<svg width="24" height="24" viewBox="0 0 24 24" fill="none" xmlns="http://www.w3.org/2000/svg">
<path fill-rule="evenodd" clip-rule="evenodd" d="M7.1998 2.3999C6.56328 2.3999 5.95284 2.65276 5.50275 3.10285C5.05266 3.55293 4.7998 4.16338 4.7998 4.7999V19.1999C4.7998 19.8364 5.05266 20.4469 5.50275 20.897C5.95284 21.347 6.56328 21.5999 7.1998 21.5999H16.7998C17.4363 21.5999 18.0468 21.347 18.4969 20.897C18.9469 20.4469 19.1998 19.8364 19.1998 19.1999V8.8967C19.1997 8.26024 18.9467 7.64989 18.4966 7.1999L14.3998 3.1031C13.9498 2.65298 13.3395 2.40004 12.703 2.3999H7.1998ZM9.5998 14.3999C9.5998 14.0816 9.47338 13.7764 9.24833 13.5514C9.02329 13.3263 8.71806 13.1999 8.3998 13.1999C8.08154 13.1999 7.77632 13.3263 7.55128 13.5514C7.32623 13.7764 7.1998 14.0816 7.1998 14.3999V17.9999C7.1998 18.3182 7.32623 18.6234 7.55128 18.8484C7.77632 19.0735 8.08154 19.1999 8.3998 19.1999C8.71806 19.1999 9.02329 19.0735 9.24833 18.8484C9.47338 18.6234 9.5998 18.3182 9.5998 17.9999V14.3999ZM11.9998 10.7999C12.3181 10.7999 12.6233 10.9263 12.8483 11.1514C13.0734 11.3764 13.1998 11.6816 13.1998 11.9999V17.9999C13.1998 18.3182 13.0734 18.6234 12.8483 18.8484C12.6233 19.0735 12.3181 19.1999 11.9998 19.1999C11.6815 19.1999 11.3763 19.0735 11.1513 18.8484C10.9262 18.6234 10.7998 18.3182 10.7998 17.9999V11.9999C10.7998 11.6816 10.9262 11.3764 11.1513 11.1514C11.3763 10.9263 11.6815 10.7999 11.9998 10.7999ZM16.7998 9.5999C16.7998 9.28164 16.6734 8.97642 16.4483 8.75137C16.2233 8.52633 15.9181 8.3999 15.5998 8.3999C15.2815 8.3999 14.9763 8.52633 14.7513 8.75137C14.5262 8.97642 14.3998 9.28164 14.3998 9.5999V17.9999C14.3998 18.3182 14.5262 18.6234 14.7513 18.8484C14.9763 19.0735 15.2815 19.1999 15.5998 19.1999C15.9181 19.1999 16.2233 19.0735 16.4483 18.8484C16.6734 18.6234 16.7998 18.3182 16.7998 17.9999V9.5999Z" fill="#FFFFFF"/>
</svg>
