<svg width="24" height="24" viewBox="0 0 24 24" fill="none" xmlns="http://www.w3.org/2000/svg">
<path d="M3.5 6C3.77614 6 4 6.22386 4 6.5L4 7.5C4 7.77614 3.77614 8 3.5 8L2 8C1.44772 8 1 7.55228 1 7C1 6.44772 1.44772 6 2 6L3.5 6Z" fill="#2589FF"/>
<path d="M3.5 11C3.77614 11 4 11.2239 4 11.5L4 12.5C4 12.7761 3.77614 13 3.5 13L2 13C1.44772 13 1 12.5523 1 12C1 11.4477 1.44772 11 2 11L3.5 11Z" fill="#2589FF"/>
<path d="M3.5 16C3.77614 16 4 16.2239 4 16.5L4 17.5C4 17.7761 3.77614 18 3.5 18L2 18C1.44772 18 1 17.5523 1 17C1 16.4477 1.44772 16 2 16L3.5 16Z" fill="#2589FF"/>
<path fill-rule="evenodd" clip-rule="evenodd" d="M3 4C3 2.89543 3.89543 2 5 2H20C21.1046 2 22 2.89543 22 4V20C22 21.1046 21.1046 22 20 22H5C3.89543 22 3 21.1046 3 20V4ZM15 8C15 9.10457 14.1046 10 13 10C11.8954 10 11 9.10457 11 8C11 6.89543 11.8954 6 13 6C14.1046 6 15 6.89543 15 8ZM18 15.6666C18 17.1955 16.4009 18 14.872 18H11.128C9.59912 18 8 17.1955 8 15.6666C8 13.0893 10.2386 11 13 11C15.7614 11 18 13.0893 18 15.6666Z" fill="#2589FF"/>
</svg>
