<svg width="20" height="20" viewBox="0 0 20 20" fill="none" xmlns="http://www.w3.org/2000/svg">
<path fill-rule="evenodd" clip-rule="evenodd" d="M10 20C15.5229 20 20 15.5229 20 10C20 8.419 19.6331 6.9237 18.9799 5.5946L10.017 14.8881C9.95805 14.9492 9.8602 14.9494 9.8012 14.8883L4.72535 9.63835C4.66915 9.58025 4.6691 9.4881 4.7252 9.42995L6.8923 7.1829C6.9512 7.12185 7.04895 7.12175 7.108 7.1827L9.9092 10.0739L16.9317 2.7923C15.1341 1.0631 12.6912 0 10 0C4.47715 0 0 4.47715 0 10C0 15.5229 4.47715 20 10 20Z" fill="#2589FF"/>
</svg>
