<svg width="24" height="24" viewBox="0 0 24 24" fill="none" xmlns="http://www.w3.org/2000/svg">
<path d="M8.12809 1.95633C8.35231 1.37977 8.90748 1 9.5261 1H14.4739C15.0925 1 15.6477 1.37977 15.8719 1.95633L16.1708 2.72489C16.4697 3.49363 17.21 4 18.0348 4H19H15L14.7142 3.26507C14.5348 2.80382 14.0907 2.5 13.5958 2.5H10.3209C9.82598 2.5 9.38185 2.80382 9.20248 3.26506L8.91667 4H5H5.9652C6.79003 4 7.53025 3.49364 7.82921 2.72489L8.12809 1.95633Z" fill="#2589FF"/>
<path fill-rule="evenodd" clip-rule="evenodd" d="M5 4C3.89543 4 3 4.89543 3 6V20C3 21.1046 3.89543 22 5 22H19C20.1046 22 21 21.1046 21 20V6C21 4.89543 20.1046 4 19 4H5ZM6 9C6 8.44772 6.44772 8 7 8C7.55228 8 8 8.44772 8 9C8 9.55228 7.55228 10 7 10C6.44772 10 6 9.55228 6 9ZM10 9C10 8.44772 10.4477 8 11 8H17C17.5523 8 18 8.44772 18 9C18 9.55228 17.5523 10 17 10H11C10.4477 10 10 9.55228 10 9ZM10 13C10 12.4477 10.4477 12 11 12H17C17.5523 12 18 12.4477 18 13C18 13.5523 17.5523 14 17 14H11C10.4477 14 10 13.5523 10 13ZM11 16C10.4477 16 10 16.4477 10 17C10 17.5523 10.4477 18 11 18H17C17.5523 18 18 17.5523 18 17C18 16.4477 17.5523 16 17 16H11ZM7 12C6.44772 12 6 12.4477 6 13C6 13.5523 6.44772 14 7 14C7.55228 14 8 13.5523 8 13C8 12.4477 7.55228 12 7 12ZM6 17C6 16.4477 6.44772 16 7 16C7.55228 16 8 16.4477 8 17C8 17.5523 7.55228 18 7 18C6.44772 18 6 17.5523 6 17Z" fill="#2589FF"/>
</svg>
