<svg width="24" height="24" viewBox="0 0 24 24" fill="none" xmlns="http://www.w3.org/2000/svg">
<path d="M16.8743 19.692C16.6903 19.74 16.4983 19.764 16.2983 19.764H16.0103C15.9063 19.756 15.8023 19.752 15.6983 19.752C15.6023 19.744 15.5103 19.736 15.4223 19.728C15.3343 19.72 15.2703 19.708 15.2303 19.692V17.376H16.1063C16.3143 17.376 16.5223 17.388 16.7303 17.412C16.9383 17.436 17.1263 17.492 17.2943 17.58C17.4623 17.66 17.5983 17.776 17.7023 17.928C17.8063 18.08 17.8583 18.288 17.8583 18.552C17.8583 18.76 17.8143 18.94 17.7263 19.092C17.6383 19.244 17.5223 19.372 17.3783 19.476C17.2343 19.572 17.0663 19.644 16.8743 19.692Z" fill="#2589FF"/>
<path d="M16.1423 16.116C15.9983 16.124 15.8703 16.128 15.7583 16.128H15.2303V13.884C15.3263 13.868 15.4623 13.856 15.6383 13.848C15.8143 13.84 16.0063 13.836 16.2143 13.836C16.3983 13.836 16.5743 13.852 16.7423 13.884C16.9103 13.916 17.0583 13.972 17.1863 14.052C17.3223 14.132 17.4303 14.24 17.5103 14.376C17.5903 14.512 17.6303 14.684 17.6303 14.892C17.6303 15.204 17.5183 15.456 17.2943 15.648C17.0783 15.84 16.8183 15.984 16.5143 16.08C16.4183 16.096 16.2943 16.108 16.1423 16.116Z" fill="#2589FF"/>
<path fill-rule="evenodd" clip-rule="evenodd" d="M12 10C10.8954 10 10 10.8954 10 12V21C10 22.1046 10.8954 23 12 23H21C22.1046 23 23 22.1046 23 21V12C23 10.8954 22.1046 10 21 10H12ZM19.2143 15.18C19.2703 14.972 19.2983 14.764 19.2983 14.556C19.2983 14.14 19.2103 13.796 19.0343 13.524C18.8583 13.252 18.6223 13.04 18.3263 12.888C18.0383 12.736 17.7063 12.632 17.3303 12.576C16.9623 12.512 16.5823 12.48 16.1903 12.48C15.9583 12.48 15.7223 12.484 15.4823 12.492C15.2503 12.5 15.0223 12.512 14.7983 12.528C14.5743 12.544 14.3623 12.564 14.1623 12.588C13.9703 12.612 13.7983 12.636 13.6463 12.66V20.94C13.8543 20.988 14.0823 21.024 14.3303 21.048C14.5863 21.072 14.8343 21.088 15.0743 21.096C15.3223 21.112 15.5503 21.12 15.7583 21.12H16.2863C16.7023 21.12 17.1063 21.072 17.4983 20.976C17.8903 20.88 18.2383 20.732 18.5423 20.532C18.8543 20.332 19.1023 20.076 19.2863 19.764C19.4703 19.444 19.5623 19.068 19.5623 18.636C19.5623 18.308 19.5143 18.024 19.4183 17.784C19.3303 17.544 19.2063 17.34 19.0463 17.172C18.8863 17.004 18.6983 16.872 18.4823 16.776C18.2663 16.68 18.0383 16.612 17.7983 16.572V16.5C18.0703 16.436 18.3023 16.34 18.4943 16.212C18.6863 16.076 18.8423 15.924 18.9623 15.756C19.0823 15.58 19.1663 15.388 19.2143 15.18Z" fill="#2589FF"/>
<path fill-rule="evenodd" clip-rule="evenodd" d="M3 1C1.89543 1 1 1.89543 1 3V12C1 13.1046 1.89543 14 3 14H11C12.6569 14 14 12.6569 14 11V3C14 1.89543 13.1046 1 12 1H3ZM6.19433 9.1401H8.70233L9.30234 11.0001H11.0303L8.33034 2.6001H6.68633L3.97433 11.0001H5.61833L6.19433 9.1401ZM8.37833 7.8201H6.57833L7.41833 5.0121H7.52633L8.37833 7.8201Z" fill="#2589FF"/>
</svg>
