<svg width="16" height="18" viewBox="0 0 16 18" fill="none" xmlns="http://www.w3.org/2000/svg">
<path d="M3.95808 4.65922L0.00158228 4.65922L0.00158182 9.85329C0.0237289 11.1437 0.484081 12.7328 1.7196 14.2706C2.93771 15.7947 5.13269 17.0843 8 17.0601C10.8681 17.0843 13.0639 15.7939 14.2804 14.2713C15.5159 12.7328 15.9771 11.1429 16 9.85253L16 4.65922L12.0451 4.65922L12.0451 9.85253C12.0664 10.1377 11.8054 11.2065 11.175 11.9311C10.528 12.6723 9.71406 13.2525 8.00079 13.2759C6.28752 13.2517 5.47281 12.6708 4.82579 11.9311C4.19458 11.2049 3.93514 10.1369 3.9557 9.85253L3.9557 4.65922L3.95729 4.65922L3.95808 4.65922ZM0.00158268 0.0604253L0.00158234 3.90284L3.95808 3.90284L3.95808 0.0604257L-4.21162e-07 0.0604253L0.00158268 0.0604253ZM16 0.0604267L12.0451 0.0604264L12.0451 3.90284L16 3.90284L16 0.0604267Z" fill="#2589FF"/>
</svg>
