<svg width="24" height="25" viewBox="0 0 24 25" fill="none" xmlns="http://www.w3.org/2000/svg">
<rect x="11" y="20" width="2" height="5" rx="1" fill="#2589FF"/>
<rect x="8" y="5" width="8" height="13" rx="4" fill="#2589FF"/>
<path d="M6 17V17C8.71771 21.5295 15.2823 21.5295 18 17V17" stroke="#2589FF" stroke-width="2" stroke-linecap="round"/>
<path fill-rule="evenodd" clip-rule="evenodd" d="M15 2.99997V3.99997C15.394 3.99997 15.7841 4.07757 16.1481 4.22833C16.512 4.37909 16.8427 4.60007 17.1213 4.87865C17.3999 5.15722 17.6209 5.48794 17.7716 5.85192C17.9224 6.2159 18 6.606 18 6.99997H19C19 6.47468 18.8965 5.95454 18.6955 5.46924C18.4945 4.98393 18.1999 4.54298 17.8284 4.17154C17.457 3.80011 17.016 3.50547 16.5307 3.30445C16.0454 3.10343 15.5253 2.99997 15 2.99997Z" fill="#2589FF"/>
<path fill-rule="evenodd" clip-rule="evenodd" d="M21.4672 4.32122C21.8189 5.1705 22 6.08075 22 7H21C21 6.21207 20.8448 5.43185 20.5433 4.7039C20.2417 3.97595 19.7998 3.31451 19.2426 2.75736C18.6855 2.20021 18.0241 1.75825 17.2961 1.45672C16.5681 1.15519 15.7879 1 15 1V0C15.9193 0 16.8295 0.18106 17.6788 0.532843C18.5281 0.884626 19.2997 1.40024 19.9497 2.05025C20.5998 2.70026 21.1154 3.47194 21.4672 4.32122Z" fill="#2589FF"/>
</svg>
